<mxfile host="app.diagrams.net" agent="Mozilla/5.0 (Windows NT 10.0; Win64; x64) AppleWebKit/537.36 (KHTML, like Gecko) Chrome/131.0.0.0 Safari/537.36 OPR/116.0.0.0 (Edition std-1)" version="26.0.16">
  <diagram name="PÃ¡gina-1" id="xzaKEmRgx2QpPFfVNoC_">
    <mxGraphModel grid="1" page="1" gridSize="10" guides="1" tooltips="1" connect="1" arrows="1" fold="1" pageScale="1" pageWidth="850" pageHeight="1100" math="0" shadow="0">
      <root>
        <mxCell id="0" />
        <mxCell id="1" parent="0" />
        <mxCell id="YH26e1aeY0wwQy9HonWN-1" value="User" style="rounded=0;whiteSpace=wrap;html=1;" vertex="1" parent="1">
          <mxGeometry x="-600" y="80" width="120" height="60" as="geometry" />
        </mxCell>
        <mxCell id="EpZdy8tO8n-WMW0kw9Oh-24" style="edgeStyle=orthogonalEdgeStyle;rounded=0;orthogonalLoop=1;jettySize=auto;html=1;endArrow=none;startFill=0;" edge="1" parent="1" source="YH26e1aeY0wwQy9HonWN-2" target="YH26e1aeY0wwQy9HonWN-1">
          <mxGeometry relative="1" as="geometry">
            <Array as="points">
              <mxPoint x="-440" y="185" />
              <mxPoint x="-440" y="110" />
            </Array>
          </mxGeometry>
        </mxCell>
        <mxCell id="YH26e1aeY0wwQy9HonWN-2" value="&lt;u&gt;Username&lt;/u&gt;" style="ellipse;whiteSpace=wrap;html=1;" vertex="1" parent="1">
          <mxGeometry x="-380" y="160" width="120" height="50" as="geometry" />
        </mxCell>
        <mxCell id="EpZdy8tO8n-WMW0kw9Oh-25" style="edgeStyle=orthogonalEdgeStyle;rounded=0;orthogonalLoop=1;jettySize=auto;html=1;endArrow=none;startFill=0;" edge="1" parent="1" source="YH26e1aeY0wwQy9HonWN-6" target="YH26e1aeY0wwQy9HonWN-1">
          <mxGeometry relative="1" as="geometry">
            <Array as="points">
              <mxPoint x="-440" y="130" />
              <mxPoint x="-440" y="110" />
            </Array>
          </mxGeometry>
        </mxCell>
        <mxCell id="YH26e1aeY0wwQy9HonWN-6" value="Password" style="ellipse;whiteSpace=wrap;html=1;" vertex="1" parent="1">
          <mxGeometry x="-380" y="110" width="120" height="40" as="geometry" />
        </mxCell>
        <mxCell id="EpZdy8tO8n-WMW0kw9Oh-23" style="edgeStyle=orthogonalEdgeStyle;rounded=0;orthogonalLoop=1;jettySize=auto;html=1;endArrow=none;startFill=0;" edge="1" parent="1" source="YH26e1aeY0wwQy9HonWN-10" target="YH26e1aeY0wwQy9HonWN-1">
          <mxGeometry relative="1" as="geometry">
            <Array as="points">
              <mxPoint x="-440" y="80" />
              <mxPoint x="-440" y="110" />
            </Array>
          </mxGeometry>
        </mxCell>
        <mxCell id="YH26e1aeY0wwQy9HonWN-10" value="Email" style="ellipse;whiteSpace=wrap;html=1;" vertex="1" parent="1">
          <mxGeometry x="-380" y="60" width="120" height="40" as="geometry" />
        </mxCell>
        <mxCell id="YH26e1aeY0wwQy9HonWN-11" value="Streak" style="ellipse;whiteSpace=wrap;html=1;" vertex="1" parent="1">
          <mxGeometry x="250" y="210" width="120" height="40" as="geometry" />
        </mxCell>
        <mxCell id="YH26e1aeY0wwQy9HonWN-13" style="edgeStyle=orthogonalEdgeStyle;rounded=0;orthogonalLoop=1;jettySize=auto;html=1;endArrow=none;startFill=0;" edge="1" parent="1" source="YH26e1aeY0wwQy9HonWN-12" target="YH26e1aeY0wwQy9HonWN-1">
          <mxGeometry relative="1" as="geometry">
            <Array as="points">
              <mxPoint x="-470" y="-80" />
              <mxPoint x="-470" y="-10" />
              <mxPoint x="-530" y="-10" />
            </Array>
          </mxGeometry>
        </mxCell>
        <mxCell id="YH26e1aeY0wwQy9HonWN-14" style="edgeStyle=orthogonalEdgeStyle;rounded=0;orthogonalLoop=1;jettySize=auto;html=1;endArrow=none;startFill=0;" edge="1" parent="1" source="YH26e1aeY0wwQy9HonWN-12" target="YH26e1aeY0wwQy9HonWN-1">
          <mxGeometry relative="1" as="geometry">
            <Array as="points">
              <mxPoint x="-610" y="-80" />
              <mxPoint x="-610" y="-10" />
              <mxPoint x="-550" y="-10" />
            </Array>
          </mxGeometry>
        </mxCell>
        <mxCell id="wt5Pe0VkJXy438UB1Rs1-84" style="edgeStyle=orthogonalEdgeStyle;rounded=0;orthogonalLoop=1;jettySize=auto;html=1;endArrow=none;endFill=0;" edge="1" parent="1" source="YH26e1aeY0wwQy9HonWN-12" target="wt5Pe0VkJXy438UB1Rs1-83">
          <mxGeometry relative="1" as="geometry" />
        </mxCell>
        <mxCell id="YH26e1aeY0wwQy9HonWN-12" value="Befriends" style="rhombus;whiteSpace=wrap;html=1;" vertex="1" parent="1">
          <mxGeometry x="-580" y="-120" width="80" height="80" as="geometry" />
        </mxCell>
        <mxCell id="EpZdy8tO8n-WMW0kw9Oh-2" style="edgeStyle=orthogonalEdgeStyle;rounded=0;orthogonalLoop=1;jettySize=auto;html=1;endArrow=none;startFill=0;" edge="1" parent="1" source="YH26e1aeY0wwQy9HonWN-17" target="EpZdy8tO8n-WMW0kw9Oh-1">
          <mxGeometry relative="1" as="geometry">
            <mxPoint x="-670" y="75" as="sourcePoint" />
            <Array as="points">
              <mxPoint x="-960" y="110" />
              <mxPoint x="-960" y="180" />
            </Array>
          </mxGeometry>
        </mxCell>
        <mxCell id="EpZdy8tO8n-WMW0kw9Oh-72" style="edgeStyle=orthogonalEdgeStyle;rounded=0;orthogonalLoop=1;jettySize=auto;html=1;endArrow=none;startFill=0;" edge="1" parent="1" source="YH26e1aeY0wwQy9HonWN-17" target="EpZdy8tO8n-WMW0kw9Oh-71">
          <mxGeometry relative="1" as="geometry">
            <mxPoint x="-680" y="75" as="sourcePoint" />
            <Array as="points">
              <mxPoint x="-960" y="110" />
              <mxPoint x="-960" y="80" />
            </Array>
          </mxGeometry>
        </mxCell>
        <mxCell id="EpZdy8tO8n-WMW0kw9Oh-74" style="edgeStyle=orthogonalEdgeStyle;rounded=0;orthogonalLoop=1;jettySize=auto;html=1;endArrow=none;startFill=0;" edge="1" parent="1" source="YH26e1aeY0wwQy9HonWN-17" target="EpZdy8tO8n-WMW0kw9Oh-73">
          <mxGeometry relative="1" as="geometry">
            <mxPoint x="-680" y="75" as="sourcePoint" />
            <Array as="points">
              <mxPoint x="-960" y="110" />
              <mxPoint x="-960" y="30" />
            </Array>
          </mxGeometry>
        </mxCell>
        <mxCell id="YH26e1aeY0wwQy9HonWN-17" value="Clan" style="rounded=0;whiteSpace=wrap;html=1;" vertex="1" parent="1">
          <mxGeometry x="-940" y="80" width="120" height="60" as="geometry" />
        </mxCell>
        <mxCell id="YH26e1aeY0wwQy9HonWN-19" value="&lt;div&gt;Class&lt;/div&gt;" style="rounded=0;whiteSpace=wrap;html=1;" vertex="1" parent="1">
          <mxGeometry x="-600" y="402.5" width="120" height="60" as="geometry" />
        </mxCell>
        <mxCell id="YH26e1aeY0wwQy9HonWN-30" style="edgeStyle=orthogonalEdgeStyle;rounded=0;orthogonalLoop=1;jettySize=auto;html=1;endArrow=none;startFill=0;shape=link;" edge="1" parent="1" source="YH26e1aeY0wwQy9HonWN-20" target="YH26e1aeY0wwQy9HonWN-28">
          <mxGeometry relative="1" as="geometry">
            <mxPoint x="-890" y="400" as="sourcePoint" />
            <mxPoint x="-1090" y="360" as="targetPoint" />
            <Array as="points">
              <mxPoint x="-860" y="432" />
              <mxPoint x="-860" y="432" />
            </Array>
          </mxGeometry>
        </mxCell>
        <mxCell id="wt5Pe0VkJXy438UB1Rs1-232" style="edgeStyle=orthogonalEdgeStyle;rounded=0;orthogonalLoop=1;jettySize=auto;html=1;endArrow=none;endFill=0;" edge="1" parent="1" source="YH26e1aeY0wwQy9HonWN-20" target="wt5Pe0VkJXy438UB1Rs1-231">
          <mxGeometry relative="1" as="geometry" />
        </mxCell>
        <mxCell id="YH26e1aeY0wwQy9HonWN-20" value="Assignment" style="rounded=0;whiteSpace=wrap;html=1;" vertex="1" parent="1">
          <mxGeometry x="-1000" y="400" width="120" height="60" as="geometry" />
        </mxCell>
        <mxCell id="EpZdy8tO8n-WMW0kw9Oh-60" style="edgeStyle=orthogonalEdgeStyle;rounded=0;orthogonalLoop=1;jettySize=auto;html=1;entryX=0.5;entryY=1;entryDx=0;entryDy=0;endArrow=none;startFill=0;" edge="1" parent="1" source="wt5Pe0VkJXy438UB1Rs1-90" target="EpZdy8tO8n-WMW0kw9Oh-35">
          <mxGeometry relative="1" as="geometry">
            <Array as="points">
              <mxPoint x="130" y="-40" />
              <mxPoint x="130" y="-40" />
            </Array>
          </mxGeometry>
        </mxCell>
        <mxCell id="YH26e1aeY0wwQy9HonWN-42" style="edgeStyle=orthogonalEdgeStyle;rounded=0;orthogonalLoop=1;jettySize=auto;html=1;endArrow=none;startFill=0;" edge="1" parent="1" source="YH26e1aeY0wwQy9HonWN-23" target="YH26e1aeY0wwQy9HonWN-41">
          <mxGeometry relative="1" as="geometry">
            <Array as="points">
              <mxPoint x="940" y="30" />
              <mxPoint x="940" />
            </Array>
          </mxGeometry>
        </mxCell>
        <mxCell id="EpZdy8tO8n-WMW0kw9Oh-84" style="edgeStyle=orthogonalEdgeStyle;rounded=0;orthogonalLoop=1;jettySize=auto;html=1;endArrow=none;startFill=0;" edge="1" parent="1" source="YH26e1aeY0wwQy9HonWN-23" target="EpZdy8tO8n-WMW0kw9Oh-75">
          <mxGeometry relative="1" as="geometry">
            <Array as="points">
              <mxPoint x="890" y="-60" />
            </Array>
          </mxGeometry>
        </mxCell>
        <mxCell id="YH26e1aeY0wwQy9HonWN-23" value="Item" style="rounded=0;whiteSpace=wrap;html=1;" vertex="1" parent="1">
          <mxGeometry x="800" y="-20" width="120" height="60" as="geometry" />
        </mxCell>
        <mxCell id="YH26e1aeY0wwQy9HonWN-40" style="edgeStyle=orthogonalEdgeStyle;rounded=0;orthogonalLoop=1;jettySize=auto;html=1;exitX=0.5;exitY=0;exitDx=0;exitDy=0;entryX=0;entryY=0.5;entryDx=0;entryDy=0;endArrow=none;startFill=0;" edge="1" parent="1" source="YH26e1aeY0wwQy9HonWN-24" target="YH26e1aeY0wwQy9HonWN-27">
          <mxGeometry relative="1" as="geometry">
            <Array as="points">
              <mxPoint x="680" y="190" />
              <mxPoint x="860" y="190" />
            </Array>
          </mxGeometry>
        </mxCell>
        <mxCell id="wt5Pe0VkJXy438UB1Rs1-60" style="edgeStyle=orthogonalEdgeStyle;rounded=0;orthogonalLoop=1;jettySize=auto;html=1;endArrow=none;endFill=0;" edge="1" parent="1" source="YH26e1aeY0wwQy9HonWN-24" target="wt5Pe0VkJXy438UB1Rs1-59">
          <mxGeometry relative="1" as="geometry">
            <Array as="points">
              <mxPoint x="605" y="250" />
            </Array>
          </mxGeometry>
        </mxCell>
        <mxCell id="YH26e1aeY0wwQy9HonWN-24" value="Weapon" style="rounded=0;whiteSpace=wrap;html=1;" vertex="1" parent="1">
          <mxGeometry x="620" y="220" width="120" height="60" as="geometry" />
        </mxCell>
        <mxCell id="YH26e1aeY0wwQy9HonWN-25" value="Armor" style="rounded=0;whiteSpace=wrap;html=1;" vertex="1" parent="1">
          <mxGeometry x="800" y="220" width="120" height="60" as="geometry" />
        </mxCell>
        <mxCell id="YH26e1aeY0wwQy9HonWN-39" style="edgeStyle=orthogonalEdgeStyle;rounded=0;orthogonalLoop=1;jettySize=auto;html=1;exitX=0.5;exitY=0;exitDx=0;exitDy=0;endArrow=none;startFill=0;" edge="1" parent="1" source="YH26e1aeY0wwQy9HonWN-26">
          <mxGeometry relative="1" as="geometry">
            <mxPoint x="860" y="160" as="targetPoint" />
            <Array as="points">
              <mxPoint x="1040" y="190" />
              <mxPoint x="860" y="190" />
            </Array>
          </mxGeometry>
        </mxCell>
        <mxCell id="YH26e1aeY0wwQy9HonWN-26" value="Pet" style="rounded=0;whiteSpace=wrap;html=1;" vertex="1" parent="1">
          <mxGeometry x="980" y="220" width="120" height="60" as="geometry" />
        </mxCell>
        <mxCell id="YH26e1aeY0wwQy9HonWN-37" style="edgeStyle=orthogonalEdgeStyle;rounded=0;orthogonalLoop=1;jettySize=auto;html=1;exitX=1;exitY=0.5;exitDx=0;exitDy=0;entryX=0.5;entryY=1;entryDx=0;entryDy=0;endArrow=none;startFill=0;shape=link;" edge="1" parent="1" source="YH26e1aeY0wwQy9HonWN-27" target="YH26e1aeY0wwQy9HonWN-23">
          <mxGeometry relative="1" as="geometry" />
        </mxCell>
        <mxCell id="YH26e1aeY0wwQy9HonWN-38" style="edgeStyle=orthogonalEdgeStyle;rounded=0;orthogonalLoop=1;jettySize=auto;html=1;exitX=0;exitY=0.5;exitDx=0;exitDy=0;entryX=0.5;entryY=0;entryDx=0;entryDy=0;endArrow=none;startFill=0;" edge="1" parent="1" source="YH26e1aeY0wwQy9HonWN-27" target="YH26e1aeY0wwQy9HonWN-25">
          <mxGeometry relative="1" as="geometry" />
        </mxCell>
        <mxCell id="YH26e1aeY0wwQy9HonWN-27" value="d" style="triangle;whiteSpace=wrap;html=1;rotation=-90;" vertex="1" parent="1">
          <mxGeometry x="830" y="80" width="60" height="80" as="geometry" />
        </mxCell>
        <mxCell id="YH26e1aeY0wwQy9HonWN-29" style="edgeStyle=orthogonalEdgeStyle;rounded=0;orthogonalLoop=1;jettySize=auto;html=1;" edge="1" parent="1" source="YH26e1aeY0wwQy9HonWN-28" target="YH26e1aeY0wwQy9HonWN-19">
          <mxGeometry relative="1" as="geometry">
            <mxPoint x="-380" y="342.5" as="sourcePoint" />
          </mxGeometry>
        </mxCell>
        <mxCell id="YH26e1aeY0wwQy9HonWN-28" value="Assigns" style="rhombus;whiteSpace=wrap;html=1;" vertex="1" parent="1">
          <mxGeometry x="-750" y="392.5" width="80" height="80" as="geometry" />
        </mxCell>
        <mxCell id="EpZdy8tO8n-WMW0kw9Oh-6" style="edgeStyle=orthogonalEdgeStyle;rounded=0;orthogonalLoop=1;jettySize=auto;html=1;endArrow=none;startFill=0;" edge="1" parent="1" source="YH26e1aeY0wwQy9HonWN-31" target="YH26e1aeY0wwQy9HonWN-20">
          <mxGeometry relative="1" as="geometry" />
        </mxCell>
        <mxCell id="YH26e1aeY0wwQy9HonWN-31" value="&lt;u&gt;Id&lt;/u&gt;" style="ellipse;whiteSpace=wrap;html=1;" vertex="1" parent="1">
          <mxGeometry x="-1000" y="340" width="120" height="40" as="geometry" />
        </mxCell>
        <mxCell id="EpZdy8tO8n-WMW0kw9Oh-7" style="edgeStyle=orthogonalEdgeStyle;rounded=0;orthogonalLoop=1;jettySize=auto;html=1;endArrow=none;startFill=0;" edge="1" parent="1" source="YH26e1aeY0wwQy9HonWN-32" target="YH26e1aeY0wwQy9HonWN-20">
          <mxGeometry relative="1" as="geometry">
            <mxPoint x="-770" y="410" as="sourcePoint" />
            <Array as="points">
              <mxPoint x="-940" y="590" />
            </Array>
          </mxGeometry>
        </mxCell>
        <mxCell id="YH26e1aeY0wwQy9HonWN-32" value="Name" style="ellipse;whiteSpace=wrap;html=1;" vertex="1" parent="1">
          <mxGeometry x="-890" y="570" width="120" height="40" as="geometry" />
        </mxCell>
        <mxCell id="EpZdy8tO8n-WMW0kw9Oh-8" style="edgeStyle=orthogonalEdgeStyle;rounded=0;orthogonalLoop=1;jettySize=auto;html=1;endArrow=none;startFill=0;" edge="1" parent="1" source="YH26e1aeY0wwQy9HonWN-33" target="YH26e1aeY0wwQy9HonWN-20">
          <mxGeometry relative="1" as="geometry">
            <Array as="points">
              <mxPoint x="-940" y="490" />
            </Array>
          </mxGeometry>
        </mxCell>
        <mxCell id="YH26e1aeY0wwQy9HonWN-33" value="DueDate" style="ellipse;whiteSpace=wrap;html=1;" vertex="1" parent="1">
          <mxGeometry x="-890" y="470" width="120" height="40" as="geometry" />
        </mxCell>
        <mxCell id="EpZdy8tO8n-WMW0kw9Oh-9" style="edgeStyle=orthogonalEdgeStyle;rounded=0;orthogonalLoop=1;jettySize=auto;html=1;endArrow=none;startFill=0;" edge="1" parent="1" source="YH26e1aeY0wwQy9HonWN-34" target="YH26e1aeY0wwQy9HonWN-20">
          <mxGeometry relative="1" as="geometry">
            <Array as="points">
              <mxPoint x="-940" y="540" />
            </Array>
          </mxGeometry>
        </mxCell>
        <mxCell id="YH26e1aeY0wwQy9HonWN-34" value="Grade" style="ellipse;whiteSpace=wrap;html=1;" vertex="1" parent="1">
          <mxGeometry x="-890" y="520" width="120" height="40" as="geometry" />
        </mxCell>
        <mxCell id="EpZdy8tO8n-WMW0kw9Oh-10" style="edgeStyle=orthogonalEdgeStyle;rounded=0;orthogonalLoop=1;jettySize=auto;html=1;endArrow=none;startFill=0;" edge="1" parent="1" source="YH26e1aeY0wwQy9HonWN-35" target="YH26e1aeY0wwQy9HonWN-20">
          <mxGeometry relative="1" as="geometry">
            <Array as="points">
              <mxPoint x="-940" y="540" />
            </Array>
          </mxGeometry>
        </mxCell>
        <mxCell id="YH26e1aeY0wwQy9HonWN-35" value="Done" style="ellipse;whiteSpace=wrap;html=1;" vertex="1" parent="1">
          <mxGeometry x="-1110" y="520" width="120" height="40" as="geometry" />
        </mxCell>
        <mxCell id="EpZdy8tO8n-WMW0kw9Oh-11" style="edgeStyle=orthogonalEdgeStyle;rounded=0;orthogonalLoop=1;jettySize=auto;html=1;endArrow=none;startFill=0;" edge="1" parent="1" source="YH26e1aeY0wwQy9HonWN-36" target="YH26e1aeY0wwQy9HonWN-20">
          <mxGeometry relative="1" as="geometry">
            <Array as="points">
              <mxPoint x="-940" y="490" />
            </Array>
          </mxGeometry>
        </mxCell>
        <mxCell id="YH26e1aeY0wwQy9HonWN-36" value="Optional" style="ellipse;whiteSpace=wrap;html=1;" vertex="1" parent="1">
          <mxGeometry x="-1110" y="470" width="120" height="40" as="geometry" />
        </mxCell>
        <mxCell id="YH26e1aeY0wwQy9HonWN-41" value="Rarity" style="ellipse;whiteSpace=wrap;html=1;" vertex="1" parent="1">
          <mxGeometry x="960" y="-20" width="120" height="40" as="geometry" />
        </mxCell>
        <mxCell id="YH26e1aeY0wwQy9HonWN-44" style="edgeStyle=orthogonalEdgeStyle;rounded=0;orthogonalLoop=1;jettySize=auto;html=1;exitX=1;exitY=0.5;exitDx=0;exitDy=0;entryX=0.5;entryY=0;entryDx=0;entryDy=0;" edge="1" parent="1" source="YH26e1aeY0wwQy9HonWN-43" target="YH26e1aeY0wwQy9HonWN-23">
          <mxGeometry relative="1" as="geometry" />
        </mxCell>
        <mxCell id="YH26e1aeY0wwQy9HonWN-45" style="edgeStyle=orthogonalEdgeStyle;rounded=0;orthogonalLoop=1;jettySize=auto;html=1;entryX=0.5;entryY=0;entryDx=0;entryDy=0;exitX=0;exitY=0.5;exitDx=0;exitDy=0;" edge="1" parent="1" source="YH26e1aeY0wwQy9HonWN-43" target="YH26e1aeY0wwQy9HonWN-22">
          <mxGeometry relative="1" as="geometry">
            <mxPoint x="345" y="-110" as="sourcePoint" />
          </mxGeometry>
        </mxCell>
        <mxCell id="wt5Pe0VkJXy438UB1Rs1-70" style="edgeStyle=orthogonalEdgeStyle;rounded=0;orthogonalLoop=1;jettySize=auto;html=1;endArrow=none;endFill=0;" edge="1" parent="1" source="YH26e1aeY0wwQy9HonWN-43" target="wt5Pe0VkJXy438UB1Rs1-69">
          <mxGeometry relative="1" as="geometry" />
        </mxCell>
        <mxCell id="YH26e1aeY0wwQy9HonWN-43" value="Owns" style="rhombus;whiteSpace=wrap;html=1;" vertex="1" parent="1">
          <mxGeometry x="490" y="-110" width="80" height="80" as="geometry" />
        </mxCell>
        <mxCell id="YH26e1aeY0wwQy9HonWN-50" style="edgeStyle=orthogonalEdgeStyle;rounded=0;orthogonalLoop=1;jettySize=auto;html=1;entryX=1;entryY=0.5;entryDx=0;entryDy=0;exitX=0.5;exitY=1;exitDx=0;exitDy=0;" edge="1" parent="1" source="wt5Pe0VkJXy438UB1Rs1-5" target="YH26e1aeY0wwQy9HonWN-22">
          <mxGeometry relative="1" as="geometry">
            <mxPoint x="500" y="550" as="sourcePoint" />
            <Array as="points">
              <mxPoint x="860" y="470" />
              <mxPoint x="530" y="470" />
              <mxPoint x="530" />
            </Array>
          </mxGeometry>
        </mxCell>
        <mxCell id="YH26e1aeY0wwQy9HonWN-52" style="edgeStyle=orthogonalEdgeStyle;rounded=0;orthogonalLoop=1;jettySize=auto;html=1;endArrow=none;startFill=0;shape=link;" edge="1" parent="1" source="YH26e1aeY0wwQy9HonWN-51">
          <mxGeometry relative="1" as="geometry">
            <mxPoint x="160" y="7.5" as="targetPoint" />
            <Array as="points">
              <mxPoint x="160" y="72.5" />
              <mxPoint x="160" y="72.5" />
            </Array>
          </mxGeometry>
        </mxCell>
        <mxCell id="YH26e1aeY0wwQy9HonWN-58" style="edgeStyle=orthogonalEdgeStyle;rounded=0;orthogonalLoop=1;jettySize=auto;html=1;exitX=0;exitY=0.5;exitDx=0;exitDy=0;entryX=0.5;entryY=0;entryDx=0;entryDy=0;endArrow=none;startFill=0;" edge="1" parent="1" source="YH26e1aeY0wwQy9HonWN-51" target="YH26e1aeY0wwQy9HonWN-54">
          <mxGeometry relative="1" as="geometry" />
        </mxCell>
        <mxCell id="YH26e1aeY0wwQy9HonWN-51" value="d" style="triangle;whiteSpace=wrap;html=1;rotation=-90;" vertex="1" parent="1">
          <mxGeometry x="130" y="252.5" width="60" height="80" as="geometry" />
        </mxCell>
        <mxCell id="YH26e1aeY0wwQy9HonWN-56" style="edgeStyle=orthogonalEdgeStyle;rounded=0;orthogonalLoop=1;jettySize=auto;html=1;exitX=0.5;exitY=0;exitDx=0;exitDy=0;entryX=0;entryY=0.5;entryDx=0;entryDy=0;endArrow=none;startFill=0;" edge="1" parent="1" source="YH26e1aeY0wwQy9HonWN-53" target="YH26e1aeY0wwQy9HonWN-51">
          <mxGeometry relative="1" as="geometry">
            <Array as="points">
              <mxPoint x="20" y="360" />
              <mxPoint x="160" y="360" />
            </Array>
          </mxGeometry>
        </mxCell>
        <mxCell id="YH26e1aeY0wwQy9HonWN-53" value="Wizzard" style="rounded=0;whiteSpace=wrap;html=1;" vertex="1" parent="1">
          <mxGeometry x="-40" y="390" width="120" height="60" as="geometry" />
        </mxCell>
        <mxCell id="YH26e1aeY0wwQy9HonWN-54" value="Knight" style="rounded=0;whiteSpace=wrap;html=1;" vertex="1" parent="1">
          <mxGeometry x="100" y="390" width="120" height="60" as="geometry" />
        </mxCell>
        <mxCell id="YH26e1aeY0wwQy9HonWN-59" style="edgeStyle=orthogonalEdgeStyle;rounded=0;orthogonalLoop=1;jettySize=auto;html=1;exitX=0.5;exitY=0;exitDx=0;exitDy=0;entryX=0;entryY=0.5;entryDx=0;entryDy=0;endArrow=none;startFill=0;" edge="1" parent="1" source="YH26e1aeY0wwQy9HonWN-55" target="YH26e1aeY0wwQy9HonWN-51">
          <mxGeometry relative="1" as="geometry">
            <Array as="points">
              <mxPoint x="300" y="360" />
              <mxPoint x="160" y="360" />
            </Array>
          </mxGeometry>
        </mxCell>
        <mxCell id="YH26e1aeY0wwQy9HonWN-55" value="Scholar" style="rounded=0;whiteSpace=wrap;html=1;" vertex="1" parent="1">
          <mxGeometry x="240" y="390" width="120" height="60" as="geometry" />
        </mxCell>
        <mxCell id="EpZdy8tO8n-WMW0kw9Oh-1" value="&lt;u&gt;Name&lt;/u&gt;" style="ellipse;whiteSpace=wrap;html=1;" vertex="1" parent="1">
          <mxGeometry x="-1120" y="160" width="120" height="40" as="geometry" />
        </mxCell>
        <mxCell id="EpZdy8tO8n-WMW0kw9Oh-5" value="" style="edgeStyle=orthogonalEdgeStyle;rounded=0;orthogonalLoop=1;jettySize=auto;html=1;endArrow=none;startFill=0;" edge="1" parent="1" source="EpZdy8tO8n-WMW0kw9Oh-3" target="YH26e1aeY0wwQy9HonWN-17">
          <mxGeometry relative="1" as="geometry">
            <mxPoint x="-680" y="75" as="targetPoint" />
            <Array as="points">
              <mxPoint x="-960" y="130" />
              <mxPoint x="-960" y="110" />
            </Array>
          </mxGeometry>
        </mxCell>
        <mxCell id="EpZdy8tO8n-WMW0kw9Oh-3" value="XP" style="ellipse;whiteSpace=wrap;html=1;" vertex="1" parent="1">
          <mxGeometry x="-1120" y="110" width="120" height="40" as="geometry" />
        </mxCell>
        <mxCell id="EpZdy8tO8n-WMW0kw9Oh-13" style="edgeStyle=orthogonalEdgeStyle;rounded=0;orthogonalLoop=1;jettySize=auto;html=1;endArrow=none;startFill=0;" edge="1" parent="1" source="EpZdy8tO8n-WMW0kw9Oh-12" target="YH26e1aeY0wwQy9HonWN-19">
          <mxGeometry relative="1" as="geometry">
            <mxPoint x="-680" y="312.5" as="sourcePoint" />
            <Array as="points">
              <mxPoint x="-420" y="430" />
              <mxPoint x="-420" y="430" />
            </Array>
          </mxGeometry>
        </mxCell>
        <mxCell id="EpZdy8tO8n-WMW0kw9Oh-12" value="Name" style="ellipse;whiteSpace=wrap;html=1;fontStyle=4" vertex="1" parent="1">
          <mxGeometry x="-400" y="410" width="120" height="40" as="geometry" />
        </mxCell>
        <mxCell id="EpZdy8tO8n-WMW0kw9Oh-16" style="edgeStyle=orthogonalEdgeStyle;rounded=0;orthogonalLoop=1;jettySize=auto;html=1;endArrow=none;startFill=0;" edge="1" parent="1" source="EpZdy8tO8n-WMW0kw9Oh-14" target="YH26e1aeY0wwQy9HonWN-19">
          <mxGeometry relative="1" as="geometry">
            <mxPoint x="-544.9411764705883" y="382.5" as="targetPoint" />
            <Array as="points">
              <mxPoint x="-610" y="512" />
              <mxPoint x="-545" y="512" />
            </Array>
          </mxGeometry>
        </mxCell>
        <mxCell id="EpZdy8tO8n-WMW0kw9Oh-14" value="CompletionProgress" style="ellipse;whiteSpace=wrap;html=1;dashed=1;dashPattern=12 12;" vertex="1" parent="1">
          <mxGeometry x="-670" y="560" width="120" height="40" as="geometry" />
        </mxCell>
        <mxCell id="EpZdy8tO8n-WMW0kw9Oh-17" style="edgeStyle=orthogonalEdgeStyle;rounded=0;orthogonalLoop=1;jettySize=auto;html=1;endArrow=none;startFill=0;" edge="1" parent="1" source="EpZdy8tO8n-WMW0kw9Oh-15" target="YH26e1aeY0wwQy9HonWN-19">
          <mxGeometry relative="1" as="geometry">
            <mxPoint x="-544.9411764705883" y="382.5" as="targetPoint" />
            <Array as="points">
              <mxPoint x="-480" y="512" />
              <mxPoint x="-545" y="512" />
            </Array>
          </mxGeometry>
        </mxCell>
        <mxCell id="EpZdy8tO8n-WMW0kw9Oh-15" value="GradeSoFar" style="ellipse;whiteSpace=wrap;html=1;dashed=1;dashPattern=12 12;" vertex="1" parent="1">
          <mxGeometry x="-540" y="560" width="120" height="40" as="geometry" />
        </mxCell>
        <mxCell id="EpZdy8tO8n-WMW0kw9Oh-19" style="edgeStyle=orthogonalEdgeStyle;rounded=0;orthogonalLoop=1;jettySize=auto;html=1;endArrow=none;startFill=0;" edge="1" parent="1" source="EpZdy8tO8n-WMW0kw9Oh-18" target="YH26e1aeY0wwQy9HonWN-19">
          <mxGeometry relative="1" as="geometry">
            <Array as="points">
              <mxPoint x="-430" y="482" />
              <mxPoint x="-430" y="430" />
            </Array>
          </mxGeometry>
        </mxCell>
        <mxCell id="EpZdy8tO8n-WMW0kw9Oh-18" value="StartDate" style="ellipse;whiteSpace=wrap;html=1;fontStyle=4" vertex="1" parent="1">
          <mxGeometry x="-400" y="460" width="120" height="40" as="geometry" />
        </mxCell>
        <mxCell id="EpZdy8tO8n-WMW0kw9Oh-21" style="edgeStyle=orthogonalEdgeStyle;rounded=0;orthogonalLoop=1;jettySize=auto;html=1;endArrow=none;startFill=0;" edge="1" parent="1" source="EpZdy8tO8n-WMW0kw9Oh-20" target="YH26e1aeY0wwQy9HonWN-19">
          <mxGeometry relative="1" as="geometry">
            <Array as="points">
              <mxPoint x="-430" y="532" />
              <mxPoint x="-430" y="430" />
            </Array>
          </mxGeometry>
        </mxCell>
        <mxCell id="EpZdy8tO8n-WMW0kw9Oh-20" value="EndDate" style="ellipse;whiteSpace=wrap;html=1;fontStyle=4" vertex="1" parent="1">
          <mxGeometry x="-400" y="510" width="120" height="40" as="geometry" />
        </mxCell>
        <mxCell id="EpZdy8tO8n-WMW0kw9Oh-27" style="edgeStyle=orthogonalEdgeStyle;rounded=0;orthogonalLoop=1;jettySize=auto;html=1;endArrow=block;startFill=0;shape=flexArrow;exitX=1;exitY=0.5;exitDx=0;exitDy=0;" edge="1" parent="1" source="EpZdy8tO8n-WMW0kw9Oh-29" target="YH26e1aeY0wwQy9HonWN-22">
          <mxGeometry relative="1" as="geometry">
            <mxPoint x="-130" y="70" as="sourcePoint" />
            <Array as="points">
              <mxPoint x="-90" y="10" />
              <mxPoint x="-90" y="10" />
            </Array>
          </mxGeometry>
        </mxCell>
        <mxCell id="EpZdy8tO8n-WMW0kw9Oh-28" style="edgeStyle=orthogonalEdgeStyle;rounded=0;orthogonalLoop=1;jettySize=auto;html=1;endArrow=classic;startFill=0;endFill=1;" edge="1" parent="1" source="EpZdy8tO8n-WMW0kw9Oh-26" target="YH26e1aeY0wwQy9HonWN-1">
          <mxGeometry relative="1" as="geometry">
            <mxPoint x="-280" y="640" as="targetPoint" />
            <mxPoint x="-200" y="570" as="sourcePoint" />
            <Array as="points">
              <mxPoint x="-510" y="10" />
            </Array>
          </mxGeometry>
        </mxCell>
        <mxCell id="EpZdy8tO8n-WMW0kw9Oh-57" style="edgeStyle=orthogonalEdgeStyle;rounded=0;orthogonalLoop=1;jettySize=auto;html=1;endArrow=none;startFill=0;" edge="1" parent="1" source="EpZdy8tO8n-WMW0kw9Oh-30" target="wt5Pe0VkJXy438UB1Rs1-90">
          <mxGeometry relative="1" as="geometry">
            <Array as="points">
              <mxPoint x="130" y="80" />
            </Array>
          </mxGeometry>
        </mxCell>
        <mxCell id="EpZdy8tO8n-WMW0kw9Oh-30" value="Legend" style="ellipse;whiteSpace=wrap;html=1;dashed=1;dashPattern=12 12;" vertex="1" parent="1">
          <mxGeometry x="-70" y="60" width="120" height="40" as="geometry" />
        </mxCell>
        <mxCell id="EpZdy8tO8n-WMW0kw9Oh-31" value="XP" style="ellipse;whiteSpace=wrap;html=1;dashed=1;dashPattern=12 12;" vertex="1" parent="1">
          <mxGeometry x="-70" y="110" width="120" height="40" as="geometry" />
        </mxCell>
        <mxCell id="EpZdy8tO8n-WMW0kw9Oh-59" style="edgeStyle=orthogonalEdgeStyle;rounded=0;orthogonalLoop=1;jettySize=auto;html=1;endArrow=none;startFill=0;" edge="1" parent="1" source="EpZdy8tO8n-WMW0kw9Oh-32" target="wt5Pe0VkJXy438UB1Rs1-90">
          <mxGeometry relative="1" as="geometry">
            <Array as="points">
              <mxPoint x="130" y="180" />
            </Array>
          </mxGeometry>
        </mxCell>
        <mxCell id="EpZdy8tO8n-WMW0kw9Oh-32" value="Level" style="ellipse;whiteSpace=wrap;html=1;dashed=1;dashPattern=12 12;" vertex="1" parent="1">
          <mxGeometry x="-70" y="160" width="120" height="40" as="geometry" />
        </mxCell>
        <mxCell id="EpZdy8tO8n-WMW0kw9Oh-34" value="Extra_Pts" style="ellipse;whiteSpace=wrap;html=1;" vertex="1" parent="1">
          <mxGeometry x="250" y="110" width="120" height="40" as="geometry" />
        </mxCell>
        <mxCell id="EpZdy8tO8n-WMW0kw9Oh-61" style="edgeStyle=orthogonalEdgeStyle;rounded=0;orthogonalLoop=1;jettySize=auto;html=1;endArrow=none;startFill=0;" edge="1" parent="1" source="EpZdy8tO8n-WMW0kw9Oh-35" target="EpZdy8tO8n-WMW0kw9Oh-40">
          <mxGeometry relative="1" as="geometry">
            <Array as="points">
              <mxPoint x="120" y="-190" />
            </Array>
          </mxGeometry>
        </mxCell>
        <mxCell id="EpZdy8tO8n-WMW0kw9Oh-62" style="edgeStyle=orthogonalEdgeStyle;rounded=0;orthogonalLoop=1;jettySize=auto;html=1;endArrow=none;startFill=0;" edge="1" parent="1" source="EpZdy8tO8n-WMW0kw9Oh-35" target="EpZdy8tO8n-WMW0kw9Oh-44">
          <mxGeometry relative="1" as="geometry">
            <Array as="points">
              <mxPoint x="140" y="-190" />
            </Array>
          </mxGeometry>
        </mxCell>
        <mxCell id="EpZdy8tO8n-WMW0kw9Oh-35" value="Stats" style="ellipse;whiteSpace=wrap;html=1;" vertex="1" parent="1">
          <mxGeometry x="70" y="-120" width="120" height="40" as="geometry" />
        </mxCell>
        <mxCell id="EpZdy8tO8n-WMW0kw9Oh-53" style="edgeStyle=orthogonalEdgeStyle;rounded=0;orthogonalLoop=1;jettySize=auto;html=1;endArrow=none;startFill=0;" edge="1" parent="1" source="EpZdy8tO8n-WMW0kw9Oh-36" target="wt5Pe0VkJXy438UB1Rs1-90">
          <mxGeometry relative="1" as="geometry">
            <Array as="points">
              <mxPoint x="190" y="80" />
            </Array>
          </mxGeometry>
        </mxCell>
        <mxCell id="EpZdy8tO8n-WMW0kw9Oh-36" value="Name" style="ellipse;whiteSpace=wrap;html=1;fontStyle=4" vertex="1" parent="1">
          <mxGeometry x="250" y="60" width="120" height="40" as="geometry" />
        </mxCell>
        <mxCell id="EpZdy8tO8n-WMW0kw9Oh-65" style="edgeStyle=orthogonalEdgeStyle;rounded=0;orthogonalLoop=1;jettySize=auto;html=1;endArrow=none;startFill=0;" edge="1" parent="1" source="EpZdy8tO8n-WMW0kw9Oh-37" target="EpZdy8tO8n-WMW0kw9Oh-35">
          <mxGeometry relative="1" as="geometry">
            <Array as="points">
              <mxPoint x="120" y="-370" />
            </Array>
          </mxGeometry>
        </mxCell>
        <mxCell id="EpZdy8tO8n-WMW0kw9Oh-37" value="StrengthTotal" style="ellipse;whiteSpace=wrap;html=1;dashed=1;dashPattern=12 12;" vertex="1" parent="1">
          <mxGeometry x="-25" y="-390" width="120" height="40" as="geometry" />
        </mxCell>
        <mxCell id="EpZdy8tO8n-WMW0kw9Oh-38" value="DefenceTotal" style="ellipse;whiteSpace=wrap;html=1;dashed=1;dashPattern=12 12;" vertex="1" parent="1">
          <mxGeometry x="-25" y="-330" width="120" height="40" as="geometry" />
        </mxCell>
        <mxCell id="EpZdy8tO8n-WMW0kw9Oh-39" value="IntelligenceTotal" style="ellipse;whiteSpace=wrap;html=1;dashed=1;dashPattern=12 12;" vertex="1" parent="1">
          <mxGeometry x="-25" y="-270" width="120" height="40" as="geometry" />
        </mxCell>
        <mxCell id="EpZdy8tO8n-WMW0kw9Oh-40" value="HeartTotal" style="ellipse;whiteSpace=wrap;html=1;dashed=1;dashPattern=12 12;" vertex="1" parent="1">
          <mxGeometry x="-25" y="-210" width="120" height="40" as="geometry" />
        </mxCell>
        <mxCell id="EpZdy8tO8n-WMW0kw9Oh-41" value="StrengthExtra" style="ellipse;whiteSpace=wrap;html=1;" vertex="1" parent="1">
          <mxGeometry x="165" y="-390" width="120" height="40" as="geometry" />
        </mxCell>
        <mxCell id="EpZdy8tO8n-WMW0kw9Oh-42" value="DefenseExtra" style="ellipse;whiteSpace=wrap;html=1;" vertex="1" parent="1">
          <mxGeometry x="165" y="-330" width="120" height="40" as="geometry" />
        </mxCell>
        <mxCell id="EpZdy8tO8n-WMW0kw9Oh-43" value="IntelligenceExtra" style="ellipse;whiteSpace=wrap;html=1;" vertex="1" parent="1">
          <mxGeometry x="165" y="-270" width="120" height="40" as="geometry" />
        </mxCell>
        <mxCell id="EpZdy8tO8n-WMW0kw9Oh-44" value="HeartExtra" style="ellipse;whiteSpace=wrap;html=1;" vertex="1" parent="1">
          <mxGeometry x="165" y="-210" width="120" height="40" as="geometry" />
        </mxCell>
        <mxCell id="EpZdy8tO8n-WMW0kw9Oh-54" style="edgeStyle=orthogonalEdgeStyle;rounded=0;orthogonalLoop=1;jettySize=auto;html=1;exitX=0;exitY=0.5;exitDx=0;exitDy=0;endArrow=none;startFill=0;" edge="1" parent="1" source="EpZdy8tO8n-WMW0kw9Oh-34" target="wt5Pe0VkJXy438UB1Rs1-90">
          <mxGeometry relative="1" as="geometry">
            <Array as="points">
              <mxPoint x="190" y="130" />
              <mxPoint x="190" y="30" />
              <mxPoint x="165" y="30" />
            </Array>
          </mxGeometry>
        </mxCell>
        <mxCell id="EpZdy8tO8n-WMW0kw9Oh-55" style="edgeStyle=orthogonalEdgeStyle;rounded=0;orthogonalLoop=1;jettySize=auto;html=1;endArrow=none;startFill=0;" edge="1" parent="1" source="YH26e1aeY0wwQy9HonWN-11" target="YH26e1aeY0wwQy9HonWN-22">
          <mxGeometry relative="1" as="geometry">
            <Array as="points">
              <mxPoint x="190" y="230" />
            </Array>
          </mxGeometry>
        </mxCell>
        <mxCell id="EpZdy8tO8n-WMW0kw9Oh-58" style="edgeStyle=orthogonalEdgeStyle;rounded=0;orthogonalLoop=1;jettySize=auto;html=1;endArrow=none;startFill=0;" edge="1" parent="1" source="EpZdy8tO8n-WMW0kw9Oh-31" target="wt5Pe0VkJXy438UB1Rs1-90">
          <mxGeometry relative="1" as="geometry">
            <Array as="points">
              <mxPoint x="130" y="130" />
            </Array>
          </mxGeometry>
        </mxCell>
        <mxCell id="EpZdy8tO8n-WMW0kw9Oh-63" style="edgeStyle=orthogonalEdgeStyle;rounded=0;orthogonalLoop=1;jettySize=auto;html=1;endArrow=none;startFill=0;" edge="1" parent="1" source="EpZdy8tO8n-WMW0kw9Oh-39" target="EpZdy8tO8n-WMW0kw9Oh-35">
          <mxGeometry relative="1" as="geometry">
            <Array as="points">
              <mxPoint x="120" y="-250" />
            </Array>
          </mxGeometry>
        </mxCell>
        <mxCell id="EpZdy8tO8n-WMW0kw9Oh-64" style="edgeStyle=orthogonalEdgeStyle;rounded=0;orthogonalLoop=1;jettySize=auto;html=1;endArrow=none;startFill=0;" edge="1" parent="1" source="EpZdy8tO8n-WMW0kw9Oh-38" target="EpZdy8tO8n-WMW0kw9Oh-35">
          <mxGeometry relative="1" as="geometry">
            <Array as="points">
              <mxPoint x="120" y="-310" />
            </Array>
          </mxGeometry>
        </mxCell>
        <mxCell id="EpZdy8tO8n-WMW0kw9Oh-66" style="edgeStyle=orthogonalEdgeStyle;rounded=0;orthogonalLoop=1;jettySize=auto;html=1;endArrow=none;startFill=0;" edge="1" parent="1" source="EpZdy8tO8n-WMW0kw9Oh-41" target="EpZdy8tO8n-WMW0kw9Oh-35">
          <mxGeometry relative="1" as="geometry">
            <Array as="points">
              <mxPoint x="140" y="-370" />
            </Array>
          </mxGeometry>
        </mxCell>
        <mxCell id="EpZdy8tO8n-WMW0kw9Oh-67" style="edgeStyle=orthogonalEdgeStyle;rounded=0;orthogonalLoop=1;jettySize=auto;html=1;endArrow=none;startFill=0;" edge="1" parent="1" source="EpZdy8tO8n-WMW0kw9Oh-42" target="EpZdy8tO8n-WMW0kw9Oh-35">
          <mxGeometry relative="1" as="geometry">
            <Array as="points">
              <mxPoint x="140" y="-310" />
            </Array>
          </mxGeometry>
        </mxCell>
        <mxCell id="EpZdy8tO8n-WMW0kw9Oh-68" style="edgeStyle=orthogonalEdgeStyle;rounded=0;orthogonalLoop=1;jettySize=auto;html=1;endArrow=none;startFill=0;" edge="1" parent="1" source="EpZdy8tO8n-WMW0kw9Oh-43" target="EpZdy8tO8n-WMW0kw9Oh-35">
          <mxGeometry relative="1" as="geometry">
            <Array as="points">
              <mxPoint x="140" y="-250" />
            </Array>
          </mxGeometry>
        </mxCell>
        <mxCell id="EpZdy8tO8n-WMW0kw9Oh-70" style="edgeStyle=orthogonalEdgeStyle;rounded=0;orthogonalLoop=1;jettySize=auto;html=1;endArrow=none;startFill=0;" edge="1" parent="1" source="EpZdy8tO8n-WMW0kw9Oh-69" target="wt5Pe0VkJXy438UB1Rs1-90">
          <mxGeometry relative="1" as="geometry">
            <Array as="points">
              <mxPoint x="-10" y="230" />
              <mxPoint x="130" y="230" />
            </Array>
          </mxGeometry>
        </mxCell>
        <mxCell id="EpZdy8tO8n-WMW0kw9Oh-69" value="HP" style="ellipse;whiteSpace=wrap;html=1;" vertex="1" parent="1">
          <mxGeometry x="-70" y="210" width="120" height="40" as="geometry" />
        </mxCell>
        <mxCell id="EpZdy8tO8n-WMW0kw9Oh-71" value="LogoUri" style="ellipse;whiteSpace=wrap;html=1;" vertex="1" parent="1">
          <mxGeometry x="-1120" y="60" width="120" height="40" as="geometry" />
        </mxCell>
        <mxCell id="EpZdy8tO8n-WMW0kw9Oh-73" value="VictoryCount" style="ellipse;whiteSpace=wrap;html=1;" vertex="1" parent="1">
          <mxGeometry x="-1120" y="10" width="120" height="40" as="geometry" />
        </mxCell>
        <mxCell id="EpZdy8tO8n-WMW0kw9Oh-80" style="edgeStyle=orthogonalEdgeStyle;rounded=0;orthogonalLoop=1;jettySize=auto;html=1;entryX=0;entryY=0.5;entryDx=0;entryDy=0;endArrow=none;startFill=0;" edge="1" parent="1" source="EpZdy8tO8n-WMW0kw9Oh-75" target="EpZdy8tO8n-WMW0kw9Oh-76">
          <mxGeometry relative="1" as="geometry">
            <Array as="points">
              <mxPoint x="1100" y="-60" />
              <mxPoint x="1100" y="-170" />
            </Array>
          </mxGeometry>
        </mxCell>
        <mxCell id="EpZdy8tO8n-WMW0kw9Oh-81" style="edgeStyle=orthogonalEdgeStyle;rounded=0;orthogonalLoop=1;jettySize=auto;html=1;entryX=0;entryY=0.5;entryDx=0;entryDy=0;endArrow=none;startFill=0;" edge="1" parent="1" source="EpZdy8tO8n-WMW0kw9Oh-75" target="EpZdy8tO8n-WMW0kw9Oh-77">
          <mxGeometry relative="1" as="geometry">
            <Array as="points">
              <mxPoint x="1100" y="-60" />
              <mxPoint x="1100" y="-120" />
            </Array>
          </mxGeometry>
        </mxCell>
        <mxCell id="EpZdy8tO8n-WMW0kw9Oh-82" style="edgeStyle=orthogonalEdgeStyle;rounded=0;orthogonalLoop=1;jettySize=auto;html=1;exitX=1;exitY=0.5;exitDx=0;exitDy=0;entryX=0;entryY=0.5;entryDx=0;entryDy=0;endArrow=none;startFill=0;" edge="1" parent="1" source="EpZdy8tO8n-WMW0kw9Oh-75" target="EpZdy8tO8n-WMW0kw9Oh-78">
          <mxGeometry relative="1" as="geometry">
            <Array as="points">
              <mxPoint x="1100" y="-60" />
              <mxPoint x="1100" y="-70" />
            </Array>
          </mxGeometry>
        </mxCell>
        <mxCell id="EpZdy8tO8n-WMW0kw9Oh-83" style="edgeStyle=orthogonalEdgeStyle;rounded=0;orthogonalLoop=1;jettySize=auto;html=1;entryX=0;entryY=0.5;entryDx=0;entryDy=0;endArrow=none;startFill=0;" edge="1" parent="1" source="EpZdy8tO8n-WMW0kw9Oh-75" target="EpZdy8tO8n-WMW0kw9Oh-79">
          <mxGeometry relative="1" as="geometry">
            <Array as="points">
              <mxPoint x="1100" y="-60" />
              <mxPoint x="1100" y="-20" />
            </Array>
          </mxGeometry>
        </mxCell>
        <mxCell id="EpZdy8tO8n-WMW0kw9Oh-75" value="Stats" style="ellipse;whiteSpace=wrap;html=1;" vertex="1" parent="1">
          <mxGeometry x="960" y="-80" width="120" height="40" as="geometry" />
        </mxCell>
        <mxCell id="EpZdy8tO8n-WMW0kw9Oh-76" value="Strength" style="ellipse;whiteSpace=wrap;html=1;" vertex="1" parent="1">
          <mxGeometry x="1140" y="-190" width="120" height="40" as="geometry" />
        </mxCell>
        <mxCell id="EpZdy8tO8n-WMW0kw9Oh-77" value="Defence" style="ellipse;whiteSpace=wrap;html=1;" vertex="1" parent="1">
          <mxGeometry x="1140" y="-140" width="120" height="40" as="geometry" />
        </mxCell>
        <mxCell id="EpZdy8tO8n-WMW0kw9Oh-78" value="Intelligence" style="ellipse;whiteSpace=wrap;html=1;" vertex="1" parent="1">
          <mxGeometry x="1140" y="-90" width="120" height="40" as="geometry" />
        </mxCell>
        <mxCell id="EpZdy8tO8n-WMW0kw9Oh-79" value="Heart" style="ellipse;whiteSpace=wrap;html=1;" vertex="1" parent="1">
          <mxGeometry x="1140" y="-40" width="120" height="40" as="geometry" />
        </mxCell>
        <mxCell id="EpZdy8tO8n-WMW0kw9Oh-89" style="edgeStyle=orthogonalEdgeStyle;rounded=0;orthogonalLoop=1;jettySize=auto;html=1;shape=flexArrow;" edge="1" parent="1" source="EpZdy8tO8n-WMW0kw9Oh-86" target="YH26e1aeY0wwQy9HonWN-17">
          <mxGeometry relative="1" as="geometry">
            <Array as="points">
              <mxPoint x="-880" y="15" />
            </Array>
          </mxGeometry>
        </mxCell>
        <mxCell id="EpZdy8tO8n-WMW0kw9Oh-90" style="edgeStyle=orthogonalEdgeStyle;rounded=0;orthogonalLoop=1;jettySize=auto;html=1;endArrow=none;startFill=0;" edge="1" parent="1" source="EpZdy8tO8n-WMW0kw9Oh-86" target="YH26e1aeY0wwQy9HonWN-1">
          <mxGeometry relative="1" as="geometry">
            <Array as="points">
              <mxPoint x="-640" y="15" />
              <mxPoint x="-640" y="90" />
            </Array>
          </mxGeometry>
        </mxCell>
        <mxCell id="wt5Pe0VkJXy438UB1Rs1-80" style="edgeStyle=orthogonalEdgeStyle;rounded=0;orthogonalLoop=1;jettySize=auto;html=1;endArrow=none;endFill=0;" edge="1" parent="1" source="EpZdy8tO8n-WMW0kw9Oh-86" target="wt5Pe0VkJXy438UB1Rs1-79">
          <mxGeometry relative="1" as="geometry">
            <mxPoint x="-710" y="24.83" as="targetPoint" />
            <Array as="points">
              <mxPoint x="-710" y="-40.17" />
              <mxPoint x="-710" y="-40.17" />
            </Array>
          </mxGeometry>
        </mxCell>
        <mxCell id="EpZdy8tO8n-WMW0kw9Oh-86" value="BelongsTo" style="rhombus;whiteSpace=wrap;html=1;" vertex="1" parent="1">
          <mxGeometry x="-750" y="-25.17" width="80" height="80" as="geometry" />
        </mxCell>
        <mxCell id="7MiWwJVK2Kd7TZDvT_rQ-2" style="edgeStyle=orthogonalEdgeStyle;rounded=0;orthogonalLoop=1;jettySize=auto;html=1;endArrow=none;startFill=0;shape=link;" edge="1" parent="1" source="7MiWwJVK2Kd7TZDvT_rQ-1" target="YH26e1aeY0wwQy9HonWN-19">
          <mxGeometry relative="1" as="geometry">
            <mxPoint x="-540" y="890" as="sourcePoint" />
            <Array as="points" />
          </mxGeometry>
        </mxCell>
        <mxCell id="wt5Pe0VkJXy438UB1Rs1-97" style="edgeStyle=orthogonalEdgeStyle;rounded=0;orthogonalLoop=1;jettySize=auto;html=1;" edge="1" parent="1" source="7MiWwJVK2Kd7TZDvT_rQ-1" target="YH26e1aeY0wwQy9HonWN-1">
          <mxGeometry relative="1" as="geometry" />
        </mxCell>
        <mxCell id="7MiWwJVK2Kd7TZDvT_rQ-1" value="Takes" style="rhombus;whiteSpace=wrap;html=1;" vertex="1" parent="1">
          <mxGeometry x="-580" y="225" width="80" height="80" as="geometry" />
        </mxCell>
        <mxCell id="wt5Pe0VkJXy438UB1Rs1-9" style="edgeStyle=orthogonalEdgeStyle;rounded=0;orthogonalLoop=1;jettySize=auto;html=1;exitX=0.5;exitY=1;exitDx=0;exitDy=0;" edge="1" parent="1" source="wt5Pe0VkJXy438UB1Rs1-1" target="YH26e1aeY0wwQy9HonWN-22">
          <mxGeometry relative="1" as="geometry">
            <Array as="points">
              <mxPoint x="680" y="450" />
              <mxPoint x="550" y="450" />
              <mxPoint x="550" y="-10" />
            </Array>
          </mxGeometry>
        </mxCell>
        <mxCell id="wt5Pe0VkJXy438UB1Rs1-10" style="edgeStyle=orthogonalEdgeStyle;rounded=0;orthogonalLoop=1;jettySize=auto;html=1;exitX=0.5;exitY=0;exitDx=0;exitDy=0;entryX=0.5;entryY=1;entryDx=0;entryDy=0;" edge="1" parent="1" source="wt5Pe0VkJXy438UB1Rs1-1" target="YH26e1aeY0wwQy9HonWN-24">
          <mxGeometry relative="1" as="geometry" />
        </mxCell>
        <mxCell id="wt5Pe0VkJXy438UB1Rs1-62" style="edgeStyle=orthogonalEdgeStyle;rounded=0;orthogonalLoop=1;jettySize=auto;html=1;exitX=1;exitY=1;exitDx=0;exitDy=0;entryX=0;entryY=0.5;entryDx=0;entryDy=0;endArrow=none;endFill=0;" edge="1" parent="1" source="wt5Pe0VkJXy438UB1Rs1-1" target="wt5Pe0VkJXy438UB1Rs1-61">
          <mxGeometry relative="1" as="geometry">
            <Array as="points">
              <mxPoint x="705" y="420" />
            </Array>
          </mxGeometry>
        </mxCell>
        <mxCell id="wt5Pe0VkJXy438UB1Rs1-1" value="Equips" style="rhombus;whiteSpace=wrap;html=1;" vertex="1" parent="1">
          <mxGeometry x="630" y="330" width="100" height="100" as="geometry" />
        </mxCell>
        <mxCell id="wt5Pe0VkJXy438UB1Rs1-8" style="edgeStyle=orthogonalEdgeStyle;rounded=0;orthogonalLoop=1;jettySize=auto;html=1;exitX=0.5;exitY=1;exitDx=0;exitDy=0;" edge="1" parent="1" source="wt5Pe0VkJXy438UB1Rs1-4" target="YH26e1aeY0wwQy9HonWN-22">
          <mxGeometry relative="1" as="geometry">
            <mxPoint x="220" y="20" as="targetPoint" />
            <Array as="points">
              <mxPoint x="1040" y="490" />
              <mxPoint x="510" y="490" />
              <mxPoint x="510" y="10" />
            </Array>
          </mxGeometry>
        </mxCell>
        <mxCell id="wt5Pe0VkJXy438UB1Rs1-12" style="edgeStyle=orthogonalEdgeStyle;rounded=0;orthogonalLoop=1;jettySize=auto;html=1;exitX=0.5;exitY=0;exitDx=0;exitDy=0;entryX=0.5;entryY=1;entryDx=0;entryDy=0;" edge="1" parent="1" source="wt5Pe0VkJXy438UB1Rs1-4" target="YH26e1aeY0wwQy9HonWN-26">
          <mxGeometry relative="1" as="geometry" />
        </mxCell>
        <mxCell id="wt5Pe0VkJXy438UB1Rs1-4" value="Accompanies" style="rhombus;whiteSpace=wrap;html=1;" vertex="1" parent="1">
          <mxGeometry x="990" y="330" width="100" height="100" as="geometry" />
        </mxCell>
        <mxCell id="wt5Pe0VkJXy438UB1Rs1-11" style="edgeStyle=orthogonalEdgeStyle;rounded=0;orthogonalLoop=1;jettySize=auto;html=1;exitX=0.5;exitY=0;exitDx=0;exitDy=0;entryX=0.5;entryY=1;entryDx=0;entryDy=0;" edge="1" parent="1" source="wt5Pe0VkJXy438UB1Rs1-5" target="YH26e1aeY0wwQy9HonWN-25">
          <mxGeometry relative="1" as="geometry" />
        </mxCell>
        <mxCell id="wt5Pe0VkJXy438UB1Rs1-5" value="Wears" style="rhombus;whiteSpace=wrap;html=1;" vertex="1" parent="1">
          <mxGeometry x="810" y="330" width="100" height="100" as="geometry" />
        </mxCell>
        <mxCell id="wt5Pe0VkJXy438UB1Rs1-45" style="edgeStyle=orthogonalEdgeStyle;rounded=0;orthogonalLoop=1;jettySize=auto;html=1;endArrow=none;startFill=0;" edge="1" parent="1" source="YH26e1aeY0wwQy9HonWN-23" target="wt5Pe0VkJXy438UB1Rs1-46">
          <mxGeometry relative="1" as="geometry">
            <mxPoint x="820" y="-280" as="sourcePoint" />
            <Array as="points">
              <mxPoint x="890" y="-120" />
            </Array>
          </mxGeometry>
        </mxCell>
        <mxCell id="wt5Pe0VkJXy438UB1Rs1-46" value="AssetData" style="ellipse;whiteSpace=wrap;html=1;" vertex="1" parent="1">
          <mxGeometry x="960" y="-140" width="120" height="40" as="geometry" />
        </mxCell>
        <mxCell id="wt5Pe0VkJXy438UB1Rs1-48" value="DescriptionUri" style="ellipse;whiteSpace=wrap;html=1;" vertex="1" parent="1">
          <mxGeometry x="830" y="-260" width="120" height="40" as="geometry" />
        </mxCell>
        <mxCell id="wt5Pe0VkJXy438UB1Rs1-51" style="edgeStyle=orthogonalEdgeStyle;rounded=0;orthogonalLoop=1;jettySize=auto;html=1;entryX=0;entryY=0.5;entryDx=0;entryDy=0;endArrow=none;startFill=0;" edge="1" parent="1" source="YH26e1aeY0wwQy9HonWN-26" target="wt5Pe0VkJXy438UB1Rs1-52">
          <mxGeometry relative="1" as="geometry">
            <mxPoint x="1100" y="250" as="sourcePoint" />
            <Array as="points">
              <mxPoint x="960" y="250" />
              <mxPoint x="960" y="325" />
            </Array>
          </mxGeometry>
        </mxCell>
        <mxCell id="wt5Pe0VkJXy438UB1Rs1-52" value="Bond" style="ellipse;whiteSpace=wrap;html=1;" vertex="1" parent="1">
          <mxGeometry x="920" y="305" width="70" height="40" as="geometry" />
        </mxCell>
        <mxCell id="wt5Pe0VkJXy438UB1Rs1-53" style="edgeStyle=orthogonalEdgeStyle;rounded=0;orthogonalLoop=1;jettySize=auto;html=1;endArrow=none;startFill=0;" edge="1" parent="1" source="wt5Pe0VkJXy438UB1Rs1-46" target="wt5Pe0VkJXy438UB1Rs1-48">
          <mxGeometry relative="1" as="geometry">
            <mxPoint x="885" y="-9" as="sourcePoint" />
            <mxPoint x="930" y="-180" as="targetPoint" />
            <Array as="points">
              <mxPoint x="1020" y="-200" />
              <mxPoint x="890" y="-200" />
            </Array>
          </mxGeometry>
        </mxCell>
        <mxCell id="wt5Pe0VkJXy438UB1Rs1-55" style="edgeStyle=orthogonalEdgeStyle;rounded=0;orthogonalLoop=1;jettySize=auto;html=1;endArrow=none;endFill=0;" edge="1" parent="1" source="wt5Pe0VkJXy438UB1Rs1-54" target="wt5Pe0VkJXy438UB1Rs1-46">
          <mxGeometry relative="1" as="geometry">
            <Array as="points" />
          </mxGeometry>
        </mxCell>
        <mxCell id="wt5Pe0VkJXy438UB1Rs1-54" value="ImageUri" style="ellipse;whiteSpace=wrap;html=1;" vertex="1" parent="1">
          <mxGeometry x="960" y="-260" width="120" height="40" as="geometry" />
        </mxCell>
        <mxCell id="wt5Pe0VkJXy438UB1Rs1-58" style="edgeStyle=orthogonalEdgeStyle;rounded=0;orthogonalLoop=1;jettySize=auto;html=1;endArrow=none;endFill=0;" edge="1" parent="1" source="wt5Pe0VkJXy438UB1Rs1-57" target="YH26e1aeY0wwQy9HonWN-25">
          <mxGeometry relative="1" as="geometry">
            <Array as="points">
              <mxPoint x="775" y="250" />
            </Array>
          </mxGeometry>
        </mxCell>
        <mxCell id="wt5Pe0VkJXy438UB1Rs1-57" value="DamageReceived" style="ellipse;whiteSpace=wrap;html=1;" vertex="1" parent="1">
          <mxGeometry x="700" y="300" width="110" height="50" as="geometry" />
        </mxCell>
        <mxCell id="wt5Pe0VkJXy438UB1Rs1-59" value="SlayCount" style="ellipse;whiteSpace=wrap;html=1;" vertex="1" parent="1">
          <mxGeometry x="570" y="305" width="70" height="40" as="geometry" />
        </mxCell>
        <mxCell id="wt5Pe0VkJXy438UB1Rs1-61" value="Since" style="ellipse;whiteSpace=wrap;html=1;" vertex="1" parent="1">
          <mxGeometry x="720" y="400" width="70" height="40" as="geometry" />
        </mxCell>
        <mxCell id="wt5Pe0VkJXy438UB1Rs1-65" style="edgeStyle=orthogonalEdgeStyle;rounded=0;orthogonalLoop=1;jettySize=auto;html=1;exitX=0;exitY=0.5;exitDx=0;exitDy=0;entryX=1;entryY=1;entryDx=0;entryDy=0;endArrow=none;endFill=0;" edge="1" parent="1" source="wt5Pe0VkJXy438UB1Rs1-63" target="wt5Pe0VkJXy438UB1Rs1-5">
          <mxGeometry relative="1" as="geometry" />
        </mxCell>
        <mxCell id="wt5Pe0VkJXy438UB1Rs1-63" value="Since" style="ellipse;whiteSpace=wrap;html=1;" vertex="1" parent="1">
          <mxGeometry x="900" y="400" width="70" height="40" as="geometry" />
        </mxCell>
        <mxCell id="wt5Pe0VkJXy438UB1Rs1-66" style="edgeStyle=orthogonalEdgeStyle;rounded=0;orthogonalLoop=1;jettySize=auto;html=1;exitX=0;exitY=0.5;exitDx=0;exitDy=0;entryX=1;entryY=1;entryDx=0;entryDy=0;endArrow=none;endFill=0;" edge="1" parent="1" source="wt5Pe0VkJXy438UB1Rs1-64" target="wt5Pe0VkJXy438UB1Rs1-4">
          <mxGeometry relative="1" as="geometry" />
        </mxCell>
        <mxCell id="wt5Pe0VkJXy438UB1Rs1-64" value="Since" style="ellipse;whiteSpace=wrap;html=1;" vertex="1" parent="1">
          <mxGeometry x="1080" y="400" width="70" height="40" as="geometry" />
        </mxCell>
        <mxCell id="wt5Pe0VkJXy438UB1Rs1-67" style="edgeStyle=orthogonalEdgeStyle;rounded=0;orthogonalLoop=1;jettySize=auto;html=1;endArrow=none;startFill=0;" edge="1" parent="1" source="YH26e1aeY0wwQy9HonWN-26" target="wt5Pe0VkJXy438UB1Rs1-68">
          <mxGeometry relative="1" as="geometry">
            <mxPoint x="1080" y="250" as="sourcePoint" />
            <Array as="points">
              <mxPoint x="1120" y="250" />
            </Array>
          </mxGeometry>
        </mxCell>
        <mxCell id="wt5Pe0VkJXy438UB1Rs1-68" value="Name" style="ellipse;whiteSpace=wrap;html=1;" vertex="1" parent="1">
          <mxGeometry x="1080" y="300" width="70" height="40" as="geometry" />
        </mxCell>
        <mxCell id="wt5Pe0VkJXy438UB1Rs1-69" value="Since" style="ellipse;whiteSpace=wrap;html=1;" vertex="1" parent="1">
          <mxGeometry x="500" y="-180" width="60" height="40" as="geometry" />
        </mxCell>
        <mxCell id="wt5Pe0VkJXy438UB1Rs1-73" style="edgeStyle=orthogonalEdgeStyle;rounded=0;orthogonalLoop=1;jettySize=auto;html=1;endArrow=none;endFill=0;" edge="1" parent="1" source="wt5Pe0VkJXy438UB1Rs1-74" target="wt5Pe0VkJXy438UB1Rs1-46">
          <mxGeometry relative="1" as="geometry">
            <mxPoint x="1180" y="-280" as="sourcePoint" />
            <mxPoint x="980" y="-210" as="targetPoint" />
            <Array as="points">
              <mxPoint x="1150" y="-200" />
              <mxPoint x="1020" y="-200" />
            </Array>
          </mxGeometry>
        </mxCell>
        <mxCell id="wt5Pe0VkJXy438UB1Rs1-74" value="NameUri" style="ellipse;whiteSpace=wrap;html=1;" vertex="1" parent="1">
          <mxGeometry x="1090" y="-260" width="120" height="40" as="geometry" />
        </mxCell>
        <mxCell id="wt5Pe0VkJXy438UB1Rs1-76" style="edgeStyle=orthogonalEdgeStyle;rounded=0;orthogonalLoop=1;jettySize=auto;html=1;endArrow=none;endFill=0;" edge="1" parent="1" source="wt5Pe0VkJXy438UB1Rs1-75" target="YH26e1aeY0wwQy9HonWN-23">
          <mxGeometry relative="1" as="geometry">
            <Array as="points">
              <mxPoint x="940" y="60" />
              <mxPoint x="940" y="30" />
            </Array>
          </mxGeometry>
        </mxCell>
        <mxCell id="wt5Pe0VkJXy438UB1Rs1-75" value="&lt;u&gt;Id&lt;/u&gt;" style="ellipse;whiteSpace=wrap;html=1;" vertex="1" parent="1">
          <mxGeometry x="960" y="40" width="120" height="40" as="geometry" />
        </mxCell>
        <mxCell id="wt5Pe0VkJXy438UB1Rs1-78" style="edgeStyle=orthogonalEdgeStyle;rounded=0;orthogonalLoop=1;jettySize=auto;html=1;endArrow=none;endFill=0;" edge="1" parent="1" source="wt5Pe0VkJXy438UB1Rs1-77" target="YH26e1aeY0wwQy9HonWN-20">
          <mxGeometry relative="1" as="geometry">
            <mxPoint x="-920.3455172413792" y="309.7222053818414" as="sourcePoint" />
            <mxPoint x="-920.3455172413792" y="400" as="targetPoint" />
            <Array as="points">
              <mxPoint x="-940" y="590" />
            </Array>
          </mxGeometry>
        </mxCell>
        <mxCell id="wt5Pe0VkJXy438UB1Rs1-77" value="Notes" style="ellipse;whiteSpace=wrap;html=1;" vertex="1" parent="1">
          <mxGeometry x="-1110" y="570" width="120" height="40" as="geometry" />
        </mxCell>
        <mxCell id="wt5Pe0VkJXy438UB1Rs1-79" value="Since" style="ellipse;whiteSpace=wrap;html=1;" vertex="1" parent="1">
          <mxGeometry x="-745" y="-80" width="70" height="40" as="geometry" />
        </mxCell>
        <mxCell id="wt5Pe0VkJXy438UB1Rs1-82" style="edgeStyle=orthogonalEdgeStyle;rounded=0;orthogonalLoop=1;jettySize=auto;html=1;endArrow=none;endFill=0;" edge="1" parent="1" source="wt5Pe0VkJXy438UB1Rs1-81" target="YH26e1aeY0wwQy9HonWN-22">
          <mxGeometry relative="1" as="geometry">
            <Array as="points">
              <mxPoint x="190" y="180" />
            </Array>
          </mxGeometry>
        </mxCell>
        <mxCell id="wt5Pe0VkJXy438UB1Rs1-81" value="TimeOfLatestAction" style="ellipse;whiteSpace=wrap;html=1;" vertex="1" parent="1">
          <mxGeometry x="245" y="160" width="130" height="40" as="geometry" />
        </mxCell>
        <mxCell id="wt5Pe0VkJXy438UB1Rs1-83" value="Since" style="ellipse;whiteSpace=wrap;html=1;" vertex="1" parent="1">
          <mxGeometry x="-575" y="-190" width="70" height="40" as="geometry" />
        </mxCell>
        <mxCell id="wt5Pe0VkJXy438UB1Rs1-89" style="edgeStyle=orthogonalEdgeStyle;rounded=0;orthogonalLoop=1;jettySize=auto;html=1;jumpStyle=arc;jumpSize=16;" edge="1" parent="1" source="wt5Pe0VkJXy438UB1Rs1-87" target="YH26e1aeY0wwQy9HonWN-1">
          <mxGeometry relative="1" as="geometry">
            <mxPoint x="-1230" y="260" as="sourcePoint" />
            <mxPoint x="-960" y="80" as="targetPoint" />
            <Array as="points">
              <mxPoint x="-620" y="110" />
              <mxPoint x="-620" y="110" />
            </Array>
          </mxGeometry>
        </mxCell>
        <mxCell id="wt5Pe0VkJXy438UB1Rs1-87" value="Manages" style="rhombus;whiteSpace=wrap;html=1;" vertex="1" parent="1">
          <mxGeometry x="-750" y="69.83" width="80" height="80" as="geometry" />
        </mxCell>
        <mxCell id="wt5Pe0VkJXy438UB1Rs1-88" style="edgeStyle=orthogonalEdgeStyle;rounded=0;orthogonalLoop=1;jettySize=auto;html=1;shape=flexArrow;" edge="1" parent="1" source="wt5Pe0VkJXy438UB1Rs1-87" target="YH26e1aeY0wwQy9HonWN-17">
          <mxGeometry relative="1" as="geometry">
            <mxPoint x="-1270" y="-25" as="sourcePoint" />
            <mxPoint x="-890" y="185" as="targetPoint" />
            <Array as="points">
              <mxPoint x="-840" y="110" />
            </Array>
          </mxGeometry>
        </mxCell>
        <mxCell id="wt5Pe0VkJXy438UB1Rs1-91" value="" style="group" connectable="0" vertex="1" parent="1">
          <mxGeometry x="105" y="-30" width="120" height="60" as="geometry" />
        </mxCell>
        <mxCell id="YH26e1aeY0wwQy9HonWN-22" value="" style="rounded=0;whiteSpace=wrap;html=1;movable=1;resizable=1;rotatable=1;deletable=1;editable=1;locked=0;connectable=1;" vertex="1" parent="wt5Pe0VkJXy438UB1Rs1-91">
          <mxGeometry width="120" height="60" as="geometry" />
        </mxCell>
        <mxCell id="wt5Pe0VkJXy438UB1Rs1-90" value="Character" style="rounded=0;whiteSpace=wrap;html=1;movable=1;resizable=1;rotatable=1;deletable=1;editable=1;locked=0;connectable=1;" vertex="1" parent="wt5Pe0VkJXy438UB1Rs1-91">
          <mxGeometry x="10" y="5" width="100" height="50" as="geometry" />
        </mxCell>
        <mxCell id="wt5Pe0VkJXy438UB1Rs1-93" style="edgeStyle=orthogonalEdgeStyle;rounded=0;orthogonalLoop=1;jettySize=auto;html=1;endArrow=none;endFill=0;" edge="1" parent="1" source="wt5Pe0VkJXy438UB1Rs1-92" target="YH26e1aeY0wwQy9HonWN-1">
          <mxGeometry relative="1" as="geometry">
            <Array as="points">
              <mxPoint x="-640" y="200" />
              <mxPoint x="-640" y="130" />
            </Array>
          </mxGeometry>
        </mxCell>
        <mxCell id="wt5Pe0VkJXy438UB1Rs1-94" style="edgeStyle=orthogonalEdgeStyle;rounded=0;orthogonalLoop=1;jettySize=auto;html=1;endArrow=none;endFill=0;" edge="1" parent="1" source="wt5Pe0VkJXy438UB1Rs1-92" target="YH26e1aeY0wwQy9HonWN-17">
          <mxGeometry relative="1" as="geometry">
            <Array as="points">
              <mxPoint x="-880" y="200" />
            </Array>
          </mxGeometry>
        </mxCell>
        <mxCell id="wt5Pe0VkJXy438UB1Rs1-92" value="Invites" style="rhombus;whiteSpace=wrap;html=1;" vertex="1" parent="1">
          <mxGeometry x="-750" y="159.83" width="80" height="80" as="geometry" />
        </mxCell>
        <mxCell id="wt5Pe0VkJXy438UB1Rs1-96" style="edgeStyle=orthogonalEdgeStyle;rounded=0;orthogonalLoop=1;jettySize=auto;html=1;endArrow=none;endFill=0;" edge="1" parent="1" source="wt5Pe0VkJXy438UB1Rs1-95" target="wt5Pe0VkJXy438UB1Rs1-92">
          <mxGeometry relative="1" as="geometry">
            <Array as="points">
              <mxPoint x="-710" y="269.83" />
              <mxPoint x="-710" y="269.83" />
            </Array>
          </mxGeometry>
        </mxCell>
        <mxCell id="wt5Pe0VkJXy438UB1Rs1-95" value="ExpiryDate" style="ellipse;whiteSpace=wrap;html=1;" vertex="1" parent="1">
          <mxGeometry x="-750" y="259.28999999999996" width="80" height="45.71" as="geometry" />
        </mxCell>
        <mxCell id="wt5Pe0VkJXy438UB1Rs1-99" value="" style="group" connectable="0" vertex="1" parent="1">
          <mxGeometry x="-230" y="-45" width="110" height="110" as="geometry" />
        </mxCell>
        <mxCell id="EpZdy8tO8n-WMW0kw9Oh-29" value="" style="rhombus;whiteSpace=wrap;html=1;" vertex="1" parent="wt5Pe0VkJXy438UB1Rs1-99">
          <mxGeometry width="110" height="110" as="geometry" />
        </mxCell>
        <mxCell id="EpZdy8tO8n-WMW0kw9Oh-26" value="PlaysAs" style="rhombus;whiteSpace=wrap;html=1;" vertex="1" parent="wt5Pe0VkJXy438UB1Rs1-99">
          <mxGeometry x="15" y="15" width="80" height="80" as="geometry" />
        </mxCell>
        <mxCell id="wt5Pe0VkJXy438UB1Rs1-230" style="edgeStyle=orthogonalEdgeStyle;rounded=0;orthogonalLoop=1;jettySize=auto;html=1;endArrow=none;endFill=0;" edge="1" parent="1" source="wt5Pe0VkJXy438UB1Rs1-229" target="YH26e1aeY0wwQy9HonWN-19">
          <mxGeometry relative="1" as="geometry">
            <Array as="points">
              <mxPoint x="-430" y="379" />
              <mxPoint x="-430" y="430" />
            </Array>
          </mxGeometry>
        </mxCell>
        <mxCell id="wt5Pe0VkJXy438UB1Rs1-229" value="GradeFormula" style="ellipse;whiteSpace=wrap;html=1;" vertex="1" parent="1">
          <mxGeometry x="-400" y="357.5" width="120" height="42.5" as="geometry" />
        </mxCell>
        <mxCell id="wt5Pe0VkJXy438UB1Rs1-234" value="" style="group" connectable="0" vertex="1" parent="1">
          <mxGeometry x="-1160" y="410" width="120" height="40" as="geometry" />
        </mxCell>
        <mxCell id="wt5Pe0VkJXy438UB1Rs1-231" value="" style="ellipse;whiteSpace=wrap;html=1;" vertex="1" parent="wt5Pe0VkJXy438UB1Rs1-234">
          <mxGeometry width="120" height="40" as="geometry" />
        </mxCell>
        <mxCell id="wt5Pe0VkJXy438UB1Rs1-233" value="Tags" style="ellipse;whiteSpace=wrap;html=1;" vertex="1" parent="wt5Pe0VkJXy438UB1Rs1-234">
          <mxGeometry x="11.25" y="3.75" width="97.5" height="32.5" as="geometry" />
        </mxCell>
        <mxCell id="IJprYdjd0fwJ9t85mE2t-1" value="Description" style="ellipse;whiteSpace=wrap;html=1;" vertex="1" parent="1">
          <mxGeometry x="-1120" y="-50" width="120" height="40" as="geometry" />
        </mxCell>
        <mxCell id="IJprYdjd0fwJ9t85mE2t-3" style="edgeStyle=orthogonalEdgeStyle;rounded=0;orthogonalLoop=1;jettySize=auto;html=1;endArrow=none;startFill=0;entryX=1;entryY=0.5;entryDx=0;entryDy=0;exitX=0;exitY=0.5;exitDx=0;exitDy=0;" edge="1" parent="1" source="YH26e1aeY0wwQy9HonWN-17" target="IJprYdjd0fwJ9t85mE2t-1">
          <mxGeometry relative="1" as="geometry">
            <mxPoint x="-930" y="120" as="sourcePoint" />
            <Array as="points">
              <mxPoint x="-960" y="110" />
              <mxPoint x="-960" y="-30" />
            </Array>
            <mxPoint x="-990" y="40" as="targetPoint" />
          </mxGeometry>
        </mxCell>
        <mxCell id="IJprYdjd0fwJ9t85mE2t-5" style="edgeStyle=orthogonalEdgeStyle;rounded=0;orthogonalLoop=1;jettySize=auto;html=1;endArrow=none;startFill=0;" edge="1" parent="1" source="IJprYdjd0fwJ9t85mE2t-4" target="YH26e1aeY0wwQy9HonWN-20">
          <mxGeometry relative="1" as="geometry" />
        </mxCell>
        <mxCell id="IJprYdjd0fwJ9t85mE2t-4" value="Type" style="ellipse;whiteSpace=wrap;html=1;" vertex="1" parent="1">
          <mxGeometry x="-1000" y="640" width="120" height="40" as="geometry" />
        </mxCell>
      </root>
    </mxGraphModel>
  </diagram>
</mxfile>
